<?xml version="1.0" standalone="no"?>
<!DOCTYPE svg PUBLIC "-//W3C//DTD SVG 20010904//EN"
 "http://www.w3.org/TR/2001/REC-SVG-20010904/DTD/svg10.dtd">
<svg version="1.0" xmlns="http://www.w3.org/2000/svg"
 width="2048.000000pt" height="2048.000000pt" viewBox="0 0 2048.000000 2048.000000"
 preserveAspectRatio="xMidYMid meet">

<g transform="translate(0.000000,2048.000000) scale(0.100000,-0.100000)"
fill="#c3002f" stroke="none">
<path d="M6430 16661 c-3200 -1141 -3805 -1360 -3808 -1377 -4 -32 1156
-10056 1165 -10065 4 -4 1459 -811 3232 -1793 l3224 -1786 3226 1787 c1774
982 3228 1788 3230 1789 3 3 1153 9946 1163 10053 l3 34 -3795 1354 c-2087
744 -3804 1355 -3815 1358 -11 2 -1732 -607 -3825 -1354z m6185 -5788 c1302
-2931 2370 -5334 2372 -5340 4 -10 -177 -13 -885 -13 l-889 0 -479 1195 -478
1195 -2025 -2 -2024 -3 -477 -1190 -478 -1190 -891 -3 c-848 -2 -891 -1 -883
15 5 10 1077 2413 2382 5341 1305 2927 2376 5322 2380 5322 4 0 1072 -2397
2375 -5327z"/>
<path d="M9542 11058 l-690 -1663 694 -3 c382 -1 1006 -1 1388 0 l695 3 -691
1663 c-380 914 -694 1662 -698 1662 -4 0 -318 -748 -698 -1662z"/>
</g>
</svg>
