{"asset":{"version":"2.0","generator":"Unity 6000.1.2f1 glTFast 6.0.1"},"nodes":[{"name":"HeadTop_End","translation":[1.41318992E-08,0.226344943,0.03732245],"rotation":[-0.00361183425,2.928739E-07,2.99842952E-07,0.9999935]},{"name":"LeftEye","translation":[0.0303526986,0.0878396258,0.08240617],"rotation":[-0.00361103867,7.14105539E-08,5.979848E-08,0.9999935]},{"name":"RightEye","translation":[-0.0298822671,0.08779098,0.08240659],"rotation":[-0.003611039,7.14105539E-08,5.979848E-08,0.9999935]},{"name":"Head","children":[0,1,2],"translation":[-2.29008479E-12,0.122638024,3.25958638E-09],"rotation":[-0.162675932,-3.14974983E-07,-3.831722E-07,0.9866796]},{"name":"Neck","children":[3],"translation":[4.54747351E-13,0.155574948,-3.352759E-08],"rotation":[0.203068763,6.86139146E-08,1.09747738E-07,0.9791645]},{"name":"LeftHandThumb4","translation":[1.49011612E-08,0.0352851041,-8.195639E-08],"rotation":[0.0129754608,0.0523860566,-0.006929321,0.9985186]},{"name":"LeftHandThumb3","children":[5],"translation":[7.450581E-09,0.0304867234,-2.23517418E-08],"rotation":[0.0097544,-0.0248018764,-0.08479485,0.996041954]},{"name":"LeftHandThumb2","children":[6],"translation":[1.00582838E-07,0.0413825735,9.685755E-08],"rotation":[0.0505065,-0.07432583,-0.249845132,0.964107]},{"name":"LeftHandThumb1","children":[7],"translation":[-0.0323560238,0.0263516922,0.00517281331],"rotation":[0.1680159,-0.009933969,0.4148873,0.8941703]},{"name":"LeftHandIndex4","translation":[6.33299351E-08,0.03383879,1.611188E-07],"rotation":[0.0447837748,0.05674636,-0.007132633,0.9973582]},{"name":"LeftHandIndex3","children":[9],"translation":[9.685755E-08,0.0283455662,1.3038516E-07],"rotation":[0.08442398,-0.07587216,-0.02127113,0.9933094]},{"name":"LeftHandIndex2","children":[10],"translation":[6.70552254E-08,0.04467857,-1.02445483E-07],"rotation":[0.09492944,-0.00579895871,0.025652498,0.995136559]},{"name":"LeftHandIndex1","children":[11],"translation":[-0.03534659,0.09745369,-0.00695229229],"rotation":[0.09073022,-0.05149147,0.07105818,0.9920017]},{"name":"LeftHandMiddle4","translation":[-6.33299351E-08,0.03456242,-8.754432E-08],"rotation":[0.0238138139,0.02245875,-0.00164708972,0.9994628]},{"name":"LeftHandMiddle3","children":[13],"translation":[-5.96046448E-08,0.0354073159,2.37487257E-07],"rotation":[0.201824963,-0.02260008,-0.043592494,0.97819]},{"name":"LeftHandMiddle2","children":[14],"translation":[-4.47034836E-08,0.0456979536,3.84607119E-08],"rotation":[0.127577171,-0.009709308,0.0430859923,0.9908448]},{"name":"LeftHandMiddle1","children":[15],"translation":[-0.009198971,0.100197293,-0.00348440232],"rotation":[0.0387243368,-0.06741382,0.0152061721,0.996857345]},{"name":"LeftHandRing4","translation":[-3.7252903E-09,0.0298131388,-3.77185643E-08],"rotation":[0.0066505773,-0.00689839944,0.0221165624,0.9997095]},{"name":"LeftHandRing3","children":[17],"translation":[3.35276127E-08,0.03616324,-1.82073563E-07],"rotation":[0.0390567,-0.005788852,0.00189608778,0.999218464]},{"name":"LeftHandRing2","children":[18],"translation":[4.47034836E-08,0.0418996364,4.76138666E-08],"rotation":[0.186228275,-0.0161960013,0.045856636,0.9813022]},{"name":"LeftHandRing1","children":[19],"translation":[0.0154217966,0.09560403,0.002230024],"rotation":[0.06409987,-0.05493023,-0.057973396,0.9947427]},{"name":"LeftHandPinky4","translation":[-4.47034836E-08,0.0263242032,-1.5180558E-07],"rotation":[0.137403786,0.104530916,-0.0123818461,0.9849062]},{"name":"LeftHandPinky3","children":[21],"translation":[-5.58793545E-09,0.022376122,3.81842256E-08],"rotation":[0.122705571,-0.0119334059,0.0121577578,0.992296934]},{"name":"LeftHandPinky2","children":[22],"translation":[1.65309757E-08,0.0281523652,-4.89963E-08],"rotation":[0.121481486,-0.2108283,0.0594757274,0.968120039]},{"name":"LeftHandPinky1","children":[23],"translation":[0.0391314551,0.08981321,0.0105443513],"rotation":[0.09903868,-0.07101678,-0.1552527,0.9803288]},{"name":"LeftHand","children":[8,12,16,20,24],"translation":[1.43423676E-07,0.251972139,-1.7507773E-07],"rotation":[0.0462273657,0.03871825,-0.0185174458,0.998008549]},{"name":"LeftForeArm","children":[25],"translation":[2.60770321E-08,0.28512904,6.600749E-08],"rotation":[-0.04964983,0.0232877769,0.220481217,0.973848343]},{"name":"LeftArm","children":[26],"translation":[-3.91155481E-08,0.118895635,2.10711733E-07],"rotation":[0.476682216,0.0426002666,-0.05861919,0.87608397]},{"name":"LeftShoulder","children":[27],"translation":[0.04713556,0.141148046,-0.00625511725],"rotation":[0.504936039,0.48947987,-0.5147033,0.490438253]},{"name":"RightHandThumb4","translation":[5.21540642E-08,0.0352847129,-5.96046448E-08],"rotation":[0.0129806791,-0.05237798,0.006926232,0.998518944]},{"name":"RightHandThumb3","children":[29],"translation":[4.47034836E-08,0.0304865334,1.15484E-07],"rotation":[0.009762806,0.0248162244,0.0847950652,0.996041536]},{"name":"RightHandThumb2","children":[30],"translation":[1.56462193E-07,0.0413823575,-4.47034836E-08],"rotation":[0.05050261,0.07431259,0.249845058,0.964108169]},{"name":"RightHandThumb1","children":[31],"translation":[0.0323558748,0.02635207,0.005173141],"rotation":[0.168015271,0.009928146,-0.414886355,0.8941709]},{"name":"RightHandIndex4","translation":[5.21540642E-08,0.03383871,5.122274E-08],"rotation":[0.0447945073,-0.05673527,0.007137012,0.9973583]},{"name":"RightHandIndex3","children":[33],"translation":[-3.7252903E-08,0.028345827,5.7742E-08],"rotation":[0.08441599,0.0758634359,0.0212721266,0.99331075]},{"name":"RightHandIndex2","children":[34],"translation":[0,0.04467868,-1.2665987E-07],"rotation":[0.0949310958,0.00580026628,-0.02565449,0.9951364]},{"name":"RightHandIndex1","children":[35],"translation":[0.035346292,0.09745413,-0.006952108],"rotation":[0.0907276347,0.0514872074,-0.0710584149,0.9920022]},{"name":"RightHandMiddle4","translation":[2.23517418E-08,0.034562733,-1.3038516E-08],"rotation":[0.0238046385,-0.0224682465,0.0016420217,0.9994628]},{"name":"RightHandMiddle3","children":[37],"translation":[4.47034836E-08,0.03540757,-1.37835741E-07],"rotation":[0.201828137,0.0226032753,0.0435942672,0.9781892]},{"name":"RightHandMiddle2","children":[38],"translation":[1.56462193E-07,0.0456977151,-4.353933E-08],"rotation":[0.127577737,0.009707284,-0.043084316,0.990844846]},{"name":"RightHandMiddle1","children":[39],"translation":[0.009198748,0.100197881,-0.0034842724],"rotation":[0.0387215652,0.06741172,-0.0152071649,0.996857643]},{"name":"RightHandRing4","translation":[5.58793545E-08,0.029812796,-8.05594E-08],"rotation":[0.006658042,0.00690643676,-0.0221154764,0.9997094]},{"name":"RightHandRing3","children":[41],"translation":[-3.7252903E-09,0.0361626223,8.381903E-08],"rotation":[0.03906065,0.005795555,-0.001897493,0.9992182]},{"name":"RightHandRing2","children":[42],"translation":[-4.09781933E-08,0.0419004932,5.47152E-08],"rotation":[0.186225414,0.0161925256,-0.04585541,0.9813028]},{"name":"RightHandRing1","children":[43],"translation":[-0.01542205,0.0956042856,0.00222963188],"rotation":[0.06409578,0.0549258925,0.0579727329,0.9947432]},{"name":"RightHandPinky4","translation":[1.13621354E-07,0.0263243634,5.7742E-08],"rotation":[0.1373996,-0.104535922,0.01238159,0.984906256]},{"name":"RightHandPinky3","children":[45],"translation":[-1.3038516E-08,0.0223758258,-3.3993274E-07],"rotation":[0.122705445,0.0119325649,-0.0121595813,0.992296934]},{"name":"RightHandPinky2","children":[46],"translation":[1.90921128E-08,0.02815209,2.52584869E-07],"rotation":[0.121480294,0.210827321,-0.05947478,0.968120456]},{"name":"RightHandPinky1","children":[47],"translation":[-0.0391317829,0.0898135155,0.01054355],"rotation":[0.09903561,0.07101304,0.155253157,0.980329335]},{"name":"RightHand","children":[32,36,40,44,48],"translation":[-4.47034836E-08,0.251972139,1.95015673E-07],"rotation":[0.04623002,-0.03871486,0.0185174681,0.998008549]},{"name":"RightForeArm","children":[49],"translation":[-5.96046448E-08,0.285128325,-3.410969E-08],"rotation":[-0.0496490151,-0.0232858174,-0.220481217,0.973848462]},{"name":"RightArm","children":[50],"translation":[5.820766E-09,0.118895717,-2.67289579E-07],"rotation":[0.476680577,-0.0426019169,0.0586194322,0.876084745]},{"name":"RightShoulder","children":[51],"translation":[-0.0471354648,0.14114809,-0.00625513028],"rotation":[0.504932165,-0.48948288,0.514700651,0.490442038]},{"name":"Spine2","children":[4,28,52],"translation":[4.39648318E-13,0.121806316,-3.5390272E-08],"rotation":[0.04720127,-2.65349115E-07,1.159933E-07,0.998885453]},{"name":"Spine1","children":[53],"translation":[2.350828E-13,0.130497441,3.50410119E-08],"rotation":[-0.03217379,7.098063E-08,9.891929E-08,0.999482334]},{"name":"Spine","children":[54],"translation":[1.368905E-12,0.0984730944,1.30385454E-08],"rotation":[-0.06869367,2.627286E-05,1.81812936E-06,0.9976378]},{"name":"LeftToe_End","translation":[-5.50979166E-07,0.09907491,5.46569936E-08],"rotation":[0.00690785656,0.698410034,0.017670285,0.715446353]},{"name":"LeftToeBase","children":[56],"translation":[4.12110239E-07,0.1488445,-1.95577741E-08],"rotation":[0.268228948,-0.04375351,0.0185468476,0.9621824]},{"name":"LeftFoot","children":[57],"translation":[3.32584023E-07,0.443859,-4.14584065E-07],"rotation":[0.507441342,0.01666862,0.00155929569,0.8615237]},{"name":"LeftLeg","children":[58],"translation":[3.69655027E-08,0.45817408,-8.440111E-10],"rotation":[-0.041654963,-0.0003080351,-0.00291149342,0.9991278]},{"name":"LeftUpLeg","children":[59],"translation":[0.09534373,0.005192708,-0.00330230035],"rotation":[0.00142389757,-0.009613843,-0.999410152,0.0329380669]},{"name":"RightToe_End","translation":[5.523616E-07,0.09907487,3.760215E-08],"rotation":[0.0069071,-0.6984309,-0.0176703725,0.7154261]},{"name":"RightToeBase","children":[61],"translation":[-5.98374754E-08,0.148844123,1.17346644E-07],"rotation":[0.268229753,0.04374719,-0.01855548,0.9621823]},{"name":"RightFoot","children":[62],"translation":[-7.566996E-09,0.4438596,1.60071068E-09],"rotation":[0.5074409,-0.0166666731,-0.00155612326,0.8615239]},{"name":"RightLeg","children":[63],"translation":[-2.55095074E-08,0.458174527,7.27595761E-10],"rotation":[-0.0416552871,0.00030894074,0.00291187456,0.9991278]},{"name":"RightUpLeg","children":[64],"translation":[-0.09534404,0.005193066,-0.00329233613],"rotation":[0.00147837109,0.009615623,0.9994101,0.0329377]},{"name":"Hips","children":[55,60,65],"translation":[8.767874E-13,1.01919019,0.0100305574],"rotation":[0.01623045,-2.6236532E-05,-4.23035317E-07,0.9998683]},{"name":"EyeLeft","mesh":0},{"name":"EyeRight","mesh":1},{"name":"Wolf3D_Head","mesh":2},{"name":"Wolf3D_Teeth","mesh":3},{"name":"Wolf3D_Hair","mesh":4},{"name":"Wolf3D_Outfit_Top","mesh":5},{"name":"Wolf3D_Outfit_Bottom","mesh":6},{"name":"Wolf3D_Outfit_Footwear","mesh":7},{"name":"Wolf3D_Body","mesh":8},{"name":"681bfdb5ee917dc6e17f37c7","children":[66,67,68,69,70,71,72,73,74,75],"translation":[0.0737649649,0,-7.7435317],"rotation":[0,0.40564853,0,-0.9140292]}],"buffers":[{"uri":"vo ku.bin","byteLength":847248}],"bufferViews":[{"buffer":0,"byteLength":2472},{"buffer":0,"byteLength":2472,"byteOffset":2472},{"buffer":0,"byteLength":49128,"byteOffset":4944},{"buffer":0,"byteLength":1200,"byteOffset":54072},{"buffer":0,"byteLength":19188,"byteOffset":55272},{"buffer":0,"byteLength":55848,"byteOffset":74460},{"buffer":0,"byteLength":59700,"byteOffset":130308},{"buffer":0,"byteLength":22584,"byteOffset":190008},{"buffer":0,"byteLength":69792,"byteOffset":212592},{"buffer":0,"byteLength":2880,"byteOffset":282384,"byteStride":24},{"buffer":0,"byteLength":960,"byteOffset":285264,"byteStride":8},{"buffer":0,"byteLength":2880,"byteOffset":286224,"byteStride":24},{"buffer":0,"byteLength":960,"byteOffset":289104,"byteStride":8},{"buffer":0,"byteLength":51888,"byteOffset":290064,"byteStride":24},{"buffer":0,"byteLength":17296,"byteOffset":341952,"byteStride":8},{"buffer":0,"byteLength":2016,"byteOffset":359248,"byteStride":24},{"buffer":0,"byteLength":672,"byteOffset":361264,"byteStride":8},{"buffer":0,"byteLength":79440,"byteOffset":361936,"byteStride":24},{"buffer":0,"byteLength":26480,"byteOffset":441376,"byteStride":8},{"buffer":0,"byteLength":39080,"byteOffset":467856,"byteStride":40},{"buffer":0,"byteLength":7816,"byteOffset":506936,"byteStride":8},{"buffer":0,"byteLength":110680,"byteOffset":514752,"byteStride":40},{"buffer":0,"byteLength":22136,"byteOffset":625432,"byteStride":8},{"buffer":0,"byteLength":118400,"byteOffset":647568,"byteStride":40},{"buffer":0,"byteLength":23680,"byteOffset":765968,"byteStride":8},{"buffer":0,"byteLength":48000,"byteOffset":789648,"byteStride":40},{"buffer":0,"byteLength":9600,"byteOffset":837648,"byteStride":8}],"accessors":[{"bufferView":9,"componentType":5126,"count":120,"type":"VEC3","max":[0.05346071,1.7435689,0.108531341],"min":[0.013177732,1.70334768,0.08851154]},{"bufferView":9,"componentType":5126,"count":120,"type":"VEC3","byteOffset":12},{"bufferView":10,"componentType":5126,"count":120,"type":"VEC2"},{"bufferView":0,"componentType":5125,"count":618,"type":"SCALAR"},{"bufferView":11,"componentType":5126,"count":120,"type":"VEC3","max":[-0.0134624373,1.74360979,0.108531378],"min":[-0.05358529,1.7033056,0.08851158]},{"bufferView":11,"componentType":5126,"count":120,"type":"VEC3","byteOffset":12},{"bufferView":12,"componentType":5126,"count":120,"type":"VEC2"},{"bufferView":1,"componentType":5125,"count":618,"type":"SCALAR"},{"bufferView":13,"componentType":5126,"count":2162,"type":"VEC3","max":[0.09579431,1.83308446,0.141717732],"min":[-0.09610731,1.52060616,-0.0865777]},{"bufferView":13,"componentType":5126,"count":2162,"type":"VEC3","byteOffset":12},{"bufferView":14,"componentType":5126,"count":2162,"type":"VEC2"},{"bufferView":2,"componentType":5125,"count":12282,"type":"SCALAR"},{"bufferView":15,"componentType":5126,"count":84,"type":"VEC3","max":[0.0283431374,1.67541921,0.123793423],"min":[-0.0283431374,1.63955986,0.0560514033]},{"bufferView":15,"componentType":5126,"count":84,"type":"VEC3","byteOffset":12},{"bufferView":16,"componentType":5126,"count":84,"type":"VEC2"},{"bufferView":3,"componentType":5125,"count":300,"type":"SCALAR"},{"bufferView":19,"componentType":5126,"count":977,"type":"VEC3","max":[0.131116182,1.85941982,0.115462422],"min":[-0.124837935,1.497725,-0.165807247]},{"bufferView":19,"componentType":5126,"count":977,"type":"VEC3","byteOffset":12},{"bufferView":19,"componentType":5126,"count":977,"type":"VEC4","byteOffset":24},{"bufferView":20,"componentType":5126,"count":977,"type":"VEC2"},{"bufferView":4,"componentType":5125,"count":4797,"type":"SCALAR"},{"bufferView":21,"componentType":5126,"count":2767,"type":"VEC3","max":[0.5035419,1.60230088,0.181060165],"min":[-0.5035414,0.9202593,-0.19931373]},{"bufferView":21,"componentType":5126,"count":2767,"type":"VEC3","byteOffset":12},{"bufferView":21,"componentType":5126,"count":2767,"type":"VEC4","byteOffset":24},{"bufferView":22,"componentType":5126,"count":2767,"type":"VEC2"},{"bufferView":5,"componentType":5125,"count":13962,"type":"SCALAR"},{"bufferView":23,"componentType":5126,"count":2960,"type":"VEC3","max":[0.24352634,1.09817183,0.129390329],"min":[-0.243598223,0.0747697353,-0.15004158]},{"bufferView":23,"componentType":5126,"count":2960,"type":"VEC3","byteOffset":12},{"bufferView":23,"componentType":5126,"count":2960,"type":"VEC4","byteOffset":24},{"bufferView":24,"componentType":5126,"count":2960,"type":"VEC2"},{"bufferView":6,"componentType":5125,"count":14925,"type":"SCALAR"},{"bufferView":25,"componentType":5126,"count":1200,"type":"VEC3","max":[0.243642792,0.173191756,0.214464948],"min":[-0.24366571,-0.0140683353,-0.144300178]},{"bufferView":25,"componentType":5126,"count":1200,"type":"VEC3","byteOffset":12},{"bufferView":25,"componentType":5126,"count":1200,"type":"VEC4","byteOffset":24},{"bufferView":26,"componentType":5126,"count":1200,"type":"VEC2"},{"bufferView":7,"componentType":5125,"count":5646,"type":"SCALAR"},{"bufferView":17,"componentType":5126,"count":3310,"type":"VEC3","max":[0.5295924,1.34912455,0.150042534],"min":[-0.529616356,0.0769981146,-0.111619629]},{"bufferView":17,"componentType":5126,"count":3310,"type":"VEC3","byteOffset":12},{"bufferView":18,"componentType":5126,"count":3310,"type":"VEC2"},{"bufferView":8,"componentType":5125,"count":17448,"type":"SCALAR"}],"materials":[{"name":"Wolf3D_Eye","pbrMetallicRoughness":{"metallicFactor":0}},{"name":"Wolf3D_Skin","pbrMetallicRoughness":{"metallicFactor":0}},{"name":"Wolf3D_Teeth","pbrMetallicRoughness":{"metallicFactor":0},"doubleSided":true},{"name":"Wolf3D_Hair","pbrMetallicRoughness":{"metallicFactor":0},"doubleSided":true},{"name":"Wolf3D_Outfit_Top","pbrMetallicRoughness":{"metallicFactor":0}},{"name":"Wolf3D_Outfit_Bottom","pbrMetallicRoughness":{"metallicFactor":0}},{"name":"Wolf3D_Outfit_Footwear","pbrMetallicRoughness":{"metallicFactor":0}},{"name":"Wolf3D_Body","pbrMetallicRoughness":{"metallicFactor":0},"doubleSided":true}],"meshes":[{"name":"EyeLeft","primitives":[{"attributes":{"POSITION":0,"NORMAL":1,"TEXCOORD_0":2},"indices":3,"material":0}]},{"name":"EyeRight","primitives":[{"attributes":{"POSITION":4,"NORMAL":5,"TEXCOORD_0":6},"indices":7,"material":0}]},{"name":"Wolf3D_Head","primitives":[{"attributes":{"POSITION":8,"NORMAL":9,"TEXCOORD_0":10},"indices":11,"material":1}]},{"name":"Wolf3D_Teeth","primitives":[{"attributes":{"POSITION":12,"NORMAL":13,"TEXCOORD_0":14},"indices":15,"material":2}]},{"name":"Wolf3D_Hair","primitives":[{"attributes":{"POSITION":16,"NORMAL":17,"TANGENT":18,"TEXCOORD_0":19},"indices":20,"material":3}]},{"name":"Wolf3D_Outfit_Top","primitives":[{"attributes":{"POSITION":21,"NORMAL":22,"TANGENT":23,"TEXCOORD_0":24},"indices":25,"material":4}]},{"name":"Wolf3D_Outfit_Bottom","primitives":[{"attributes":{"POSITION":26,"NORMAL":27,"TANGENT":28,"TEXCOORD_0":29},"indices":30,"material":5}]},{"name":"Wolf3D_Outfit_Footwear","primitives":[{"attributes":{"POSITION":31,"NORMAL":32,"TANGENT":33,"TEXCOORD_0":34},"indices":35,"material":6}]},{"name":"Wolf3D_Body","primitives":[{"attributes":{"POSITION":36,"NORMAL":37,"TEXCOORD_0":38},"indices":39,"material":7}]}],"scene":0,"scenes":[{"name":"681bfdb5ee917dc6e17f37c7","nodes":[76]}]}